Dinamo - CSMS Iasi

Liga 1
Sezon 2012/2013
Etapa 2

General
Format                                   : MPEG-PS
Overall bit rate mode                    : Variable
Overall bit rate                         : 9 313 Kbps

Video

Format                                   : MPEG Video
Format version                           : Version 2
Bit rate mode                            : Variable
Bit rate                                 : 8 871 Kbps
Maximum bit rate                         : 9 800 Kbps
Width                                    : 720 pixels
Height                                   : 576 pixels
Display aspect ratio                     : 4:3
Frame rate                               : 25.000 fps
Standard                                 : PAL
Color space                              : YUV
Chroma subsampling                       : 4:2:0
Bit depth                                : 8 bits
Scan type                                : Interlaced
Scan order                               : Top Field First
Compression mode                         : Lossy
Bits/(Pixel*Frame)                       : 0.856
Stream size                              : 3.22 GiB (95%)

Audio

Format                                   : MPEG Audio
Format version                           : Version 1
Bit rate mode                            : Constant
Bit rate                                 : 256 Kbps
Channel(s)                               : 2 channels
Sampling rate                            : 48.0 KHz
Compression mode                         : Lossy
Stream size                              : 95.2 MiB (3%)

Screens

[URL=http://imageshack.us/photo/my-images/694/bscap0000so.jpg/][IMG]http://img694.imageshack.us/img694/8154/bscap0000so.jpg[/IMG][/URL]

[URL=http://imageshack.us/photo/my-images/820/bscap0001sg.jpg/][IMG]http://img820.imageshack.us/img820/9683/bscap0001sg.jpg[/IMG][/URL]

[URL=http://imageshack.us/photo/my-images/401/bscap0002pb.jpg/][IMG]http://img401.imageshack.us/img401/3636/bscap0002pb.jpg[/IMG][/URL]

[URL=http://imageshack.us/photo/my-images/209/bscap0003ys.jpg/][IMG]http://img209.imageshack.us/img209/8017/bscap0003ys.jpg[/IMG][/URL]
